<mxfile host="app.diagrams.net" agent="Mozilla/5.0 (Windows NT 10.0; Win64; x64) AppleWebKit/537.36 (KHTML, like Gecko) Chrome/130.0.0.0 Safari/537.36" version="24.8.6">
  <diagram name="Page-1" id="OKwFJsFqi2xaDStPprQn">
    <mxGraphModel dx="794" dy="1554" grid="1" gridSize="10" guides="1" tooltips="1" connect="1" arrows="1" fold="1" page="1" pageScale="1" pageWidth="850" pageHeight="1100" math="0" shadow="0">
      <root>
        <mxCell id="0" />
        <mxCell id="1" parent="0" />
        <mxCell id="5tTuvAFQy_W_XBeUhQWG-2" value="Inisialisasi Library dan Variabel" style="whiteSpace=wrap;strokeWidth=2;" vertex="1" parent="1">
          <mxGeometry x="273" y="119" width="218" height="66" as="geometry" />
        </mxCell>
        <mxCell id="5tTuvAFQy_W_XBeUhQWG-3" value="Inisialisasi Serial dan WiFi" style="whiteSpace=wrap;strokeWidth=2;" vertex="1" parent="1">
          <mxGeometry x="260" y="235" width="244" height="49" as="geometry" />
        </mxCell>
        <mxCell id="5tTuvAFQy_W_XBeUhQWG-4" value="Hubungkan ke WiFi" style="whiteSpace=wrap;strokeWidth=2;" vertex="1" parent="1">
          <mxGeometry x="284" y="334" width="196" height="49" as="geometry" />
        </mxCell>
        <mxCell id="5tTuvAFQy_W_XBeUhQWG-5" value="Apakah WiFi Terhubung?" style="rhombus;strokeWidth=2;whiteSpace=wrap;" vertex="1" parent="1">
          <mxGeometry x="271" y="455" width="222" height="222" as="geometry" />
        </mxCell>
        <mxCell id="5tTuvAFQy_W_XBeUhQWG-6" value="Inisialisasi Sensor DHT" style="whiteSpace=wrap;strokeWidth=2;" vertex="1" parent="1">
          <mxGeometry x="273" y="749" width="218" height="49" as="geometry" />
        </mxCell>
        <mxCell id="5tTuvAFQy_W_XBeUhQWG-7" value="Loop Utama" style="rhombus;strokeWidth=2;whiteSpace=wrap;" vertex="1" parent="1">
          <mxGeometry x="315" y="848" width="134" height="134" as="geometry" />
        </mxCell>
        <mxCell id="5tTuvAFQy_W_XBeUhQWG-8" value="Baca Kelembaban &amp; Suhu" style="whiteSpace=wrap;strokeWidth=2;" vertex="1" parent="1">
          <mxGeometry x="179" y="1033" width="239" height="66" as="geometry" />
        </mxCell>
        <mxCell id="5tTuvAFQy_W_XBeUhQWG-9" value="Apakah Pembacaan Valid?" style="rhombus;strokeWidth=2;whiteSpace=wrap;" vertex="1" parent="1">
          <mxGeometry x="182" y="1149" width="233" height="233" as="geometry" />
        </mxCell>
        <mxCell id="5tTuvAFQy_W_XBeUhQWG-10" value="Cetak &#39;Gagal Membaca Sensor DHT&#39;" style="whiteSpace=wrap;strokeWidth=2;" vertex="1" parent="1">
          <mxGeometry x="20" y="1454" width="256" height="66" as="geometry" />
        </mxCell>
        <mxCell id="5tTuvAFQy_W_XBeUhQWG-11" value="Hubungkan ke ThingSpeak" style="whiteSpace=wrap;strokeWidth=2;" vertex="1" parent="1">
          <mxGeometry x="326" y="1463" width="247" height="49" as="geometry" />
        </mxCell>
        <mxCell id="5tTuvAFQy_W_XBeUhQWG-12" value="Apakah Koneksi ThingSpeak Berhasil?" style="rhombus;strokeWidth=2;whiteSpace=wrap;" vertex="1" parent="1">
          <mxGeometry x="317" y="1570" width="264" height="264" as="geometry" />
        </mxCell>
        <mxCell id="5tTuvAFQy_W_XBeUhQWG-13" value="Tutup Koneksi" style="whiteSpace=wrap;strokeWidth=2;" vertex="1" parent="1">
          <mxGeometry x="369" y="2127" width="159" height="49" as="geometry" />
        </mxCell>
        <mxCell id="5tTuvAFQy_W_XBeUhQWG-14" value="Kirim Data ke ThingSpeak" style="whiteSpace=wrap;strokeWidth=2;" vertex="1" parent="1">
          <mxGeometry x="406" y="1907" width="243" height="49" as="geometry" />
        </mxCell>
        <mxCell id="5tTuvAFQy_W_XBeUhQWG-15" value="Cetak Data yang Dikirim" style="whiteSpace=wrap;strokeWidth=2;" vertex="1" parent="1">
          <mxGeometry x="411" y="2028" width="233" height="49" as="geometry" />
        </mxCell>
        <mxCell id="5tTuvAFQy_W_XBeUhQWG-16" value="Tunggu 15 detik" style="whiteSpace=wrap;strokeWidth=2;" vertex="1" parent="1">
          <mxGeometry x="446" y="2226" width="174" height="49" as="geometry" />
        </mxCell>
        <mxCell id="5tTuvAFQy_W_XBeUhQWG-17" value="" style="curved=1;startArrow=none;endArrow=block;exitX=0.5;exitY=0.99;entryX=0.5;entryY=-0.01;rounded=0;" edge="1" parent="1" target="5tTuvAFQy_W_XBeUhQWG-2">
          <mxGeometry relative="1" as="geometry">
            <Array as="points" />
            <mxPoint x="382" y="69" as="sourcePoint" />
          </mxGeometry>
        </mxCell>
        <mxCell id="5tTuvAFQy_W_XBeUhQWG-18" value="" style="curved=1;startArrow=none;endArrow=block;exitX=0.5;exitY=1;entryX=0.5;entryY=0;rounded=0;" edge="1" parent="1" source="5tTuvAFQy_W_XBeUhQWG-2" target="5tTuvAFQy_W_XBeUhQWG-3">
          <mxGeometry relative="1" as="geometry">
            <Array as="points" />
          </mxGeometry>
        </mxCell>
        <mxCell id="5tTuvAFQy_W_XBeUhQWG-19" value="" style="curved=1;startArrow=none;endArrow=block;exitX=0.5;exitY=0.99;entryX=0.5;entryY=-0.01;rounded=0;" edge="1" parent="1" source="5tTuvAFQy_W_XBeUhQWG-3" target="5tTuvAFQy_W_XBeUhQWG-4">
          <mxGeometry relative="1" as="geometry">
            <Array as="points" />
          </mxGeometry>
        </mxCell>
        <mxCell id="5tTuvAFQy_W_XBeUhQWG-20" value="" style="curved=1;startArrow=none;endArrow=block;exitX=0.46;exitY=0.99;entryX=0.43;entryY=0;rounded=0;" edge="1" parent="1" source="5tTuvAFQy_W_XBeUhQWG-4" target="5tTuvAFQy_W_XBeUhQWG-5">
          <mxGeometry relative="1" as="geometry">
            <Array as="points">
              <mxPoint x="361" y="419" />
            </Array>
          </mxGeometry>
        </mxCell>
        <mxCell id="5tTuvAFQy_W_XBeUhQWG-21" value="Tidak" style="curved=1;startArrow=none;endArrow=block;exitX=0.57;exitY=0;entryX=0.54;entryY=0.99;rounded=0;" edge="1" parent="1" source="5tTuvAFQy_W_XBeUhQWG-5" target="5tTuvAFQy_W_XBeUhQWG-4">
          <mxGeometry relative="1" as="geometry">
            <Array as="points">
              <mxPoint x="403" y="419" />
            </Array>
          </mxGeometry>
        </mxCell>
        <mxCell id="5tTuvAFQy_W_XBeUhQWG-22" value="Ya" style="curved=1;startArrow=none;endArrow=block;exitX=0.5;exitY=1;entryX=0.5;entryY=0.01;rounded=0;" edge="1" parent="1" source="5tTuvAFQy_W_XBeUhQWG-5" target="5tTuvAFQy_W_XBeUhQWG-6">
          <mxGeometry relative="1" as="geometry">
            <Array as="points" />
          </mxGeometry>
        </mxCell>
        <mxCell id="5tTuvAFQy_W_XBeUhQWG-23" value="" style="curved=1;startArrow=none;endArrow=block;exitX=0.5;exitY=1;entryX=0.5;entryY=0;rounded=0;" edge="1" parent="1" source="5tTuvAFQy_W_XBeUhQWG-6" target="5tTuvAFQy_W_XBeUhQWG-7">
          <mxGeometry relative="1" as="geometry">
            <Array as="points" />
          </mxGeometry>
        </mxCell>
        <mxCell id="5tTuvAFQy_W_XBeUhQWG-24" value="" style="curved=1;startArrow=none;endArrow=block;exitX=0.05;exitY=1;entryX=0.5;entryY=-0.01;rounded=0;" edge="1" parent="1" source="5tTuvAFQy_W_XBeUhQWG-7" target="5tTuvAFQy_W_XBeUhQWG-8">
          <mxGeometry relative="1" as="geometry">
            <Array as="points">
              <mxPoint x="298" y="1008" />
            </Array>
          </mxGeometry>
        </mxCell>
        <mxCell id="5tTuvAFQy_W_XBeUhQWG-25" value="" style="curved=1;startArrow=none;endArrow=block;exitX=0.5;exitY=1;entryX=0.5;entryY=0;rounded=0;" edge="1" parent="1" source="5tTuvAFQy_W_XBeUhQWG-8" target="5tTuvAFQy_W_XBeUhQWG-9">
          <mxGeometry relative="1" as="geometry">
            <Array as="points" />
          </mxGeometry>
        </mxCell>
        <mxCell id="5tTuvAFQy_W_XBeUhQWG-26" value="Tidak" style="curved=1;startArrow=none;endArrow=block;exitX=0.01;exitY=1;entryX=0.5;entryY=0;rounded=0;" edge="1" parent="1" source="5tTuvAFQy_W_XBeUhQWG-9" target="5tTuvAFQy_W_XBeUhQWG-10">
          <mxGeometry relative="1" as="geometry">
            <Array as="points">
              <mxPoint x="148" y="1418" />
            </Array>
          </mxGeometry>
        </mxCell>
        <mxCell id="5tTuvAFQy_W_XBeUhQWG-27" value="Ya" style="curved=1;startArrow=none;endArrow=block;exitX=0.99;exitY=1;entryX=0.5;entryY=0;rounded=0;" edge="1" parent="1" source="5tTuvAFQy_W_XBeUhQWG-9" target="5tTuvAFQy_W_XBeUhQWG-11">
          <mxGeometry relative="1" as="geometry">
            <Array as="points">
              <mxPoint x="449" y="1418" />
            </Array>
          </mxGeometry>
        </mxCell>
        <mxCell id="5tTuvAFQy_W_XBeUhQWG-28" value="" style="curved=1;startArrow=none;endArrow=block;exitX=0.5;exitY=0.99;entryX=0.5;entryY=0;rounded=0;" edge="1" parent="1" source="5tTuvAFQy_W_XBeUhQWG-11" target="5tTuvAFQy_W_XBeUhQWG-12">
          <mxGeometry relative="1" as="geometry">
            <Array as="points" />
          </mxGeometry>
        </mxCell>
        <mxCell id="5tTuvAFQy_W_XBeUhQWG-29" value="Tidak" style="curved=1;startArrow=none;endArrow=block;exitX=0.27;exitY=1;entryX=0.26;entryY=0;rounded=0;" edge="1" parent="1" source="5tTuvAFQy_W_XBeUhQWG-12" target="5tTuvAFQy_W_XBeUhQWG-13">
          <mxGeometry relative="1" as="geometry">
            <Array as="points">
              <mxPoint x="371" y="1871" />
              <mxPoint x="371" y="2102" />
            </Array>
          </mxGeometry>
        </mxCell>
        <mxCell id="5tTuvAFQy_W_XBeUhQWG-30" value="Ya" style="curved=1;startArrow=none;endArrow=block;exitX=0.73;exitY=1;entryX=0.5;entryY=0;rounded=0;" edge="1" parent="1" source="5tTuvAFQy_W_XBeUhQWG-12" target="5tTuvAFQy_W_XBeUhQWG-14">
          <mxGeometry relative="1" as="geometry">
            <Array as="points">
              <mxPoint x="527" y="1871" />
            </Array>
          </mxGeometry>
        </mxCell>
        <mxCell id="5tTuvAFQy_W_XBeUhQWG-31" value="" style="curved=1;startArrow=none;endArrow=block;exitX=0.5;exitY=0.99;entryX=0.5;entryY=0.01;rounded=0;" edge="1" parent="1" source="5tTuvAFQy_W_XBeUhQWG-14" target="5tTuvAFQy_W_XBeUhQWG-15">
          <mxGeometry relative="1" as="geometry">
            <Array as="points" />
          </mxGeometry>
        </mxCell>
        <mxCell id="5tTuvAFQy_W_XBeUhQWG-32" value="" style="curved=1;startArrow=none;endArrow=block;exitX=0.5;exitY=1;entryX=0.75;entryY=0;rounded=0;" edge="1" parent="1" source="5tTuvAFQy_W_XBeUhQWG-15" target="5tTuvAFQy_W_XBeUhQWG-13">
          <mxGeometry relative="1" as="geometry">
            <Array as="points">
              <mxPoint x="527" y="2102" />
            </Array>
          </mxGeometry>
        </mxCell>
        <mxCell id="5tTuvAFQy_W_XBeUhQWG-33" value="" style="curved=1;startArrow=none;endArrow=block;exitX=0.5;exitY=0.99;entryX=0.26;entryY=-0.01;rounded=0;" edge="1" parent="1" source="5tTuvAFQy_W_XBeUhQWG-13" target="5tTuvAFQy_W_XBeUhQWG-16">
          <mxGeometry relative="1" as="geometry">
            <Array as="points">
              <mxPoint x="449" y="2201" />
            </Array>
          </mxGeometry>
        </mxCell>
        <mxCell id="5tTuvAFQy_W_XBeUhQWG-34" value="" style="curved=1;startArrow=none;endArrow=block;exitX=0.94;exitY=-0.01;entryX=1;entryY=0.65;rounded=0;" edge="1" parent="1" source="5tTuvAFQy_W_XBeUhQWG-16" target="5tTuvAFQy_W_XBeUhQWG-7">
          <mxGeometry relative="1" as="geometry">
            <Array as="points">
              <mxPoint x="689" y="2201" />
              <mxPoint x="689" y="1008" />
            </Array>
          </mxGeometry>
        </mxCell>
        <mxCell id="5tTuvAFQy_W_XBeUhQWG-35" value="Mulai" style="ellipse;whiteSpace=wrap;html=1;" vertex="1" parent="1">
          <mxGeometry x="322" y="-10" width="120" height="80" as="geometry" />
        </mxCell>
      </root>
    </mxGraphModel>
  </diagram>
</mxfile>
